<svg width="52" height="63" viewBox="0 0 52 63" fill="none" xmlns="http://www.w3.org/2000/svg">
<path id="a" d="M52 48.875C52 50.625 51.9375 52.3542 51.8125 54.0625C51.6875 55.7292 51.3125 57.2292 50.6875 58.5625C50.0625 59.8958 49.125 60.9792 47.875 61.8125C46.625 62.6042 44.875 63 42.625 63C40.3333 63 38.5417 62.625 37.25 61.875C35.9583 61.0833 35 60.1458 34.375 59.0625C33.75 57.9375 33.3542 56.7708 33.1875 55.5625C33.0625 54.3542 33 53.3333 33 52.5C32.625 53.7083 32.0833 54.9375 31.375 56.1875C30.7083 57.4375 29.8333 58.5625 28.75 59.5625C27.6667 60.5625 26.3542 61.3958 24.8125 62.0625C23.3125 62.6875 21.5417 63 19.5 63C17.2083 63 14.9167 62.625 12.625 61.875C10.3333 61.125 8.27083 59.875 6.4375 58.125C4.60417 56.375 3.10417 54.1042 1.9375 51.3125C0.8125 48.4792 0.25 45 0.25 40.875V22.75C0.25 18.5833 0.8125 15.1042 1.9375 12.3125C3.10417 9.47917 4.60417 7.20833 6.4375 5.5C8.27083 3.75 10.3333 2.5 12.625 1.75C14.9167 1 17.2083 0.625 19.5 0.625C21.5417 0.625 23.3125 0.9375 24.8125 1.5625C26.3542 2.1875 27.6667 3 28.75 4C29.8333 5 30.7083 6.125 31.375 7.375C32.0833 8.625 32.625 9.875 33 11.125C33 9.04167 33.2917 7.3125 33.875 5.9375C34.4583 4.5625 35.2083 3.47917 36.125 2.6875C37.0417 1.85417 38.0625 1.29167 39.1875 1C40.3542 0.666667 41.5 0.5 42.625 0.5C44.7083 0.5 46.375 0.916667 47.625 1.75C48.875 2.54167 49.8125 3.60417 50.4375 4.9375C51.1042 6.22917 51.5208 7.75 51.6875 9.5C51.8958 11.2083 52 12.9583 52 14.75V48.875ZM19.5 39.25C19.5 40.375 19.5417 41.4792 19.625 42.5625C19.7083 43.6458 19.9375 44.625 20.3125 45.5C20.6875 46.375 21.2292 47.0833 21.9375 47.625C22.6875 48.125 23.7083 48.375 25 48.375C26.625 48.375 27.9375 48.0208 28.9375 47.3125C29.9792 46.5625 30.7917 45.4375 31.375 43.9375C31.9583 42.3958 32.3542 40.4792 32.5625 38.1875C32.8125 35.8542 32.9583 33.0833 33 29.875C33 28.5833 32.875 27.1042 32.625 25.4375C32.4167 23.7292 32.0208 22.125 31.4375 20.625C30.8542 19.125 30.0417 17.8542 29 16.8125C27.9583 15.7708 26.625 15.25 25 15.25C23.7083 15.25 22.6875 15.5208 21.9375 16.0625C21.2292 16.5625 20.6875 17.2292 20.3125 18.0625C19.9375 18.8958 19.7083 19.8542 19.625 20.9375C19.5417 21.9792 19.5 23.0417 19.5 24.125V39.25Z" fill="black"/>
</svg>
