<svg width="54" height="63" viewBox="0 0 54 63" fill="none" xmlns="http://www.w3.org/2000/svg">
<path id="c" d="M19.25 41.375C19.25 42.0417 19.3125 42.8958 19.4375 43.9375C19.5625 44.9375 19.8542 45.9375 20.3125 46.9375C20.7708 47.8958 21.4375 48.7292 22.3125 49.4375C23.2292 50.1458 24.4583 50.5 26 50.5C27.8333 50.5 29.2708 50.2917 30.3125 49.875C31.3542 49.4583 32.125 48.8958 32.625 48.1875C33.125 47.4375 33.4375 46.5833 33.5625 45.625C33.6875 44.625 33.75 43.5833 33.75 42.5C33.75 41.9583 33.8333 41.3542 34 40.6875C34.2083 39.9792 34.6667 39.3333 35.375 38.75C36.0833 38.125 37.125 37.625 38.5 37.25C39.9167 36.8333 41.8333 36.625 44.25 36.625C46.4583 36.625 48.1667 36.875 49.375 37.375C50.5833 37.875 51.4583 38.4792 52 39.1875C52.5833 39.8542 52.9167 40.5625 53 41.3125C53.0833 42.0208 53.125 42.5833 53.125 43C53.125 45.6667 52.7083 48.0208 51.875 50.0625C51.0833 52.0625 50 53.8125 48.625 55.3125C47.25 56.7708 45.6667 58 43.875 59C42.0833 60 40.1667 60.7917 38.125 61.375C36.125 61.9583 34.0833 62.375 32 62.625C29.9167 62.875 27.9167 63 26 63C22.7083 63 19.5208 62.5625 16.4375 61.6875C13.3542 60.8125 10.6042 59.4375 8.1875 57.5625C5.8125 55.6875 3.89583 53.2917 2.4375 50.375C0.979167 47.4167 0.25 43.875 0.25 39.75V25.125C0.25 21.1667 0.708333 17.8125 1.625 15.0625C2.58333 12.3125 3.8125 10.0208 5.3125 8.1875C6.8125 6.35417 8.5 4.9375 10.375 3.9375C12.25 2.89583 14.1458 2.125 16.0625 1.625C17.9792 1.125 19.7917 0.8125 21.5 0.6875C23.25 0.5625 24.75 0.5 26 0.5C29.7083 0.5 32.9375 0.8125 35.6875 1.4375C38.4792 2.0625 40.875 2.89583 42.875 3.9375C44.875 4.97917 46.5208 6.1875 47.8125 7.5625C49.1458 8.89583 50.1875 10.3125 50.9375 11.8125C51.6875 13.3125 52.2083 14.8125 52.5 16.3125C52.8333 17.8125 53 19.2083 53 20.5C53 21.1667 52.9583 21.9583 52.875 22.875C52.7917 23.75 52.4583 24.6042 51.875 25.4375C51.3333 26.2292 50.4583 26.9167 49.25 27.5C48.0417 28.0833 46.3333 28.375 44.125 28.375C43.3333 28.375 42.3333 28.3542 41.125 28.3125C39.9583 28.2292 38.8125 28 37.6875 27.625C36.5625 27.25 35.6042 26.6667 34.8125 25.875C34.0208 25.0833 33.625 23.9583 33.625 22.5C33.625 21.5 33.5625 20.5417 33.4375 19.625C33.3542 18.6667 33.0625 17.8333 32.5625 17.125C32.0625 16.4167 31.2917 15.8542 30.25 15.4375C29.25 14.9792 27.8333 14.75 26 14.75C24.4583 14.75 23.2292 15 22.3125 15.5C21.4375 16 20.7708 16.625 20.3125 17.375C19.8542 18.125 19.5625 18.9167 19.4375 19.75C19.3125 20.5833 19.25 21.3333 19.25 22V41.375Z" fill="black"/>
</svg>
