<svg width="54" height="63" viewBox="0 0 54 63" fill="none" xmlns="http://www.w3.org/2000/svg">
<path id="e" d="M53.5 27.375C53.5 28.0417 53.4583 28.8333 53.375 29.75C53.2917 30.625 52.9583 31.4792 52.375 32.3125C51.8333 33.1042 50.9583 33.7917 49.75 34.375C48.5417 34.9583 46.8333 35.25 44.625 35.25H19.75V41.25C19.75 42.25 19.875 43.2917 20.125 44.375C20.375 45.4583 20.7917 46.4583 21.375 47.375C22 48.2917 22.8125 49.0417 23.8125 49.625C24.8125 50.2083 26.0417 50.5 27.5 50.5C29.1667 50.5 30.4375 50.3125 31.3125 49.9375C32.2292 49.5208 32.9375 49.0208 33.4375 48.4375C33.9792 47.8542 34.4583 47.2292 34.875 46.5625C35.2917 45.8958 35.8333 45.2708 36.5 44.6875C37.2083 44.1042 38.1667 43.625 39.375 43.25C40.625 42.8333 42.3333 42.625 44.5 42.625C45.5417 42.625 46.5417 42.7083 47.5 42.875C48.5 43.0417 49.375 43.3542 50.125 43.8125C50.875 44.2708 51.4792 44.9167 51.9375 45.75C52.3958 46.5417 52.625 47.5833 52.625 48.875C52.625 51.5833 51.7708 53.8542 50.0625 55.6875C48.3542 57.4792 46.2083 58.9167 43.625 60C41.0417 61.0833 38.2292 61.8542 35.1875 62.3125C32.1875 62.7708 29.375 63 26.75 63C23.2917 62.9583 20 62.5208 16.875 61.6875C13.75 60.8542 10.9792 59.5208 8.5625 57.6875C6.1875 55.8542 4.29167 53.4583 2.875 50.5C1.45833 47.5417 0.75 43.9167 0.75 39.625V25C0.75 21.0417 1.20833 17.6875 2.125 14.9375C3.08333 12.1875 4.3125 9.89583 5.8125 8.0625C7.3125 6.22917 9 4.8125 10.875 3.8125C12.75 2.77083 14.6458 2 16.5625 1.5C18.4792 1 20.2917 0.6875 22 0.5625C23.75 0.4375 25.25 0.375 26.5 0.375C30.7083 0.375 34.2917 0.75 37.25 1.5C40.25 2.25 42.75 3.22917 44.75 4.4375C46.75 5.64583 48.3333 7.04167 49.5 8.625C50.6667 10.2083 51.5417 11.8542 52.125 13.5625C52.7083 15.2292 53.0833 16.9375 53.25 18.6875C53.4167 20.3958 53.5 22 53.5 23.5V27.375ZM19.75 25.875H35.375C35.375 23.9167 35.3125 22.1875 35.1875 20.6875C35.1042 19.1458 34.7917 17.8542 34.25 16.8125C33.75 15.7708 32.9375 14.9792 31.8125 14.4375C30.7292 13.8958 29.1667 13.625 27.125 13.625C25.4167 13.625 24.0625 13.8958 23.0625 14.4375C22.1042 14.9792 21.375 15.6667 20.875 16.5C20.375 17.2917 20.0625 18.1458 19.9375 19.0625C19.8125 19.9792 19.75 20.7917 19.75 21.5V25.875Z" fill="black"/>
</svg>
