<svg width="20" height="88" viewBox="0 0 20 88" fill="none" xmlns="http://www.w3.org/2000/svg">
<path id="i" d="M0.625 39.5C0.625 37.75 0.708333 36.0417 0.875 34.375C1.08333 32.7083 1.52083 31.2292 2.1875 29.9375C2.85417 28.6042 3.8125 27.5417 5.0625 26.75C6.3125 25.9167 8 25.5 10.125 25.5C12.25 25.5 13.9375 25.9167 15.1875 26.75C16.4375 27.5417 17.3958 28.6042 18.0625 29.9375C18.7292 31.2292 19.1458 32.7083 19.3125 34.375C19.5208 36.0417 19.625 37.75 19.625 39.5V74C19.625 75.75 19.5208 77.4792 19.3125 79.1875C19.1458 80.8542 18.7292 82.3542 18.0625 83.6875C17.3958 84.9792 16.4375 86.0208 15.1875 86.8125C13.9375 87.6042 12.25 88 10.125 88C8 88 6.3125 87.6042 5.0625 86.8125C3.8125 86.0208 2.85417 84.9792 2.1875 83.6875C1.52083 82.3542 1.08333 80.8542 0.875 79.1875C0.708333 77.4792 0.625 75.75 0.625 74V39.5ZM19.75 10C19.75 13.2083 18.9167 15.6042 17.25 17.1875C15.5833 18.7292 13.25 19.5 10.25 19.5C7.25 19.5 4.91667 18.7292 3.25 17.1875C1.58333 15.6042 0.75 13.2083 0.75 10C0.75 6.66667 1.58333 4.25 3.25 2.75C4.91667 1.25 7.25 0.5 10.25 0.5C13.4583 0.5 15.8333 1.25 17.375 2.75C18.9583 4.25 19.75 6.66667 19.75 10Z" fill="black"/>
</svg>
