<svg width="20" height="88" viewBox="0 0 20 88" fill="none" xmlns="http://www.w3.org/2000/svg">
<path id="l" d="M0.75 14.375C0.75 12.625 0.833333 10.9167 1 9.25C1.20833 7.58333 1.64583 6.10417 2.3125 4.8125C2.97917 3.52083 3.9375 2.47917 5.1875 1.6875C6.4375 0.895833 8.125 0.5 10.25 0.5C12.4167 0.5 14.125 0.895833 15.375 1.6875C16.625 2.47917 17.5625 3.52083 18.1875 4.8125C18.8542 6.10417 19.2708 7.58333 19.4375 9.25C19.6458 10.9167 19.75 12.625 19.75 14.375V74C19.75 75.75 19.6458 77.4792 19.4375 79.1875C19.2708 80.8542 18.8542 82.3542 18.1875 83.6875C17.5625 84.9792 16.625 86.0208 15.375 86.8125C14.125 87.6042 12.4167 88 10.25 88C8.125 88 6.4375 87.6042 5.1875 86.8125C3.9375 86.0208 2.97917 84.9792 2.3125 83.6875C1.64583 82.3542 1.20833 80.8542 1 79.1875C0.833333 77.4792 0.75 75.75 0.75 74V14.375Z" fill="black"/>
</svg>
