<svg width="81" height="88" viewBox="0 0 81 88" fill="none" xmlns="http://www.w3.org/2000/svg">
<path id="M" d="M40 67.75C38.7917 67.75 37.75 67.5208 36.875 67.0625C36.0417 66.6042 35.3125 66.0208 34.6875 65.3125C34.0625 64.6042 33.5208 63.8125 33.0625 62.9375C32.6458 62.0625 32.2917 61.2083 32 60.375L20.125 26.125H18.5V78.25C18.5 79.5833 18.4167 80.8333 18.25 82C18.0833 83.1667 17.7083 84.2083 17.125 85.125C16.5833 86 15.75 86.7083 14.625 87.25C13.5417 87.75 12.0417 88 10.125 88C7.95833 88 6.25 87.75 5 87.25C3.75 86.7083 2.8125 86 2.1875 85.125C1.5625 84.2083 1.16667 83.1667 1 82C0.833333 80.8333 0.75 79.5833 0.75 78.25V14.75C0.75 12.9583 0.791667 11.2083 0.875 9.5C1 7.79167 1.35417 6.27083 1.9375 4.9375C2.52083 3.60417 3.4375 2.54167 4.6875 1.75C5.97917 0.916667 7.79167 0.5 10.125 0.5H18.625C20.0417 0.5 21.2292 0.5625 22.1875 0.6875C23.1875 0.770833 24.1042 1.125 24.9375 1.75C25.7708 2.33333 26.5833 3.29167 27.375 4.625C28.2083 5.95833 29.1042 7.85417 30.0625 10.3125C31.0625 12.7292 32.2083 15.8333 33.5 19.625C34.7917 23.375 36.375 28 38.25 33.5L39.875 38.5H41.375L43.375 32.25C45.0833 27 46.5417 22.5625 47.75 18.9375C48.9583 15.3125 50.0208 12.3333 50.9375 10C51.8542 7.625 52.6667 5.8125 53.375 4.5625C54.125 3.27083 54.8958 2.33333 55.6875 1.75C56.5208 1.125 57.4167 0.770833 58.375 0.6875C59.3333 0.5625 60.5 0.5 61.875 0.5H71C73.3333 0.5 75.125 0.916667 76.375 1.75C77.6667 2.54167 78.6042 3.60417 79.1875 4.9375C79.7708 6.27083 80.1042 7.79167 80.1875 9.5C80.3125 11.2083 80.375 12.9583 80.375 14.75V78.25C80.375 79.5833 80.2917 80.8333 80.125 82C79.9583 83.1667 79.5625 84.2083 78.9375 85.125C78.3125 86 77.375 86.7083 76.125 87.25C74.875 87.75 73.1667 88 71 88C69.0833 88 67.5625 87.75 66.4375 87.25C65.3542 86.7083 64.5208 86 63.9375 85.125C63.3958 84.2083 63.0417 83.1667 62.875 82C62.7083 80.8333 62.625 79.5833 62.625 78.25V26.125H60.875L49.125 60.375C48.7917 61.2083 48.4167 62.0625 48 62.9375C47.5833 63.8125 47.0625 64.6042 46.4375 65.3125C45.8125 66.0208 45.0833 66.6042 44.25 67.0625C43.4167 67.5208 42.4167 67.75 41.25 67.75H40Z" fill="black"/>
</svg>
