<svg id="visual" viewBox="0 0 960 400" width="960" height="400" xmlns="http://www.w3.org/2000/svg"
  xmlns:xlink="http://www.w3.org/1999/xlink" version="1.1">
  <path
    d="M0 321L26.7 321.7C53.3 322.3 106.7 323.7 160 315.7C213.3 307.7 266.7 290.3 320 280C373.3 269.7 426.7 266.3 480 267.2C533.3 268 586.7 273 640 276C693.3 279 746.7 280 800 281.5C853.3 283 906.7 285 933.3 286L960 287L960 401L933.3 401C906.7 401 853.3 401 800 401C746.7 401 693.3 401 640 401C586.7 401 533.3 401 480 401C426.7 401 373.3 401 320 401C266.7 401 213.3 401 160 401C106.7 401 53.3 401 26.7 401L0 401Z"
    fill="#0066ff"></path>
  <path
    d="M0 287L26.7 287C53.3 287 106.7 287 160 294.8C213.3 302.7 266.7 318.3 320 325.7C373.3 333 426.7 332 480 326C533.3 320 586.7 309 640 309C693.3 309 746.7 320 800 320.8C853.3 321.7 906.7 312.3 933.3 307.7L960 303L960 401L933.3 401C906.7 401 853.3 401 800 401C746.7 401 693.3 401 640 401C586.7 401 533.3 401 480 401C426.7 401 373.3 401 320 401C266.7 401 213.3 401 160 401C106.7 401 53.3 401 26.7 401L0 401Z"
    fill="#1274f3"></path>
  <path
    d="M0 328L26.7 328.3C53.3 328.7 106.7 329.3 160 328C213.3 326.7 266.7 323.3 320 319.5C373.3 315.7 426.7 311.3 480 311C533.3 310.7 586.7 314.3 640 320.2C693.3 326 746.7 334 800 334C853.3 334 906.7 326 933.3 322L960 318L960 401L933.3 401C906.7 401 853.3 401 800 401C746.7 401 693.3 401 640 401C586.7 401 533.3 401 480 401C426.7 401 373.3 401 320 401C266.7 401 213.3 401 160 401C106.7 401 53.3 401 26.7 401L0 401Z"
    fill="#347fe5"></path>
  <path
    d="M0 330L26.7 333.8C53.3 337.7 106.7 345.3 160 349.8C213.3 354.3 266.7 355.7 320 352.8C373.3 350 426.7 343 480 346C533.3 349 586.7 362 640 364.5C693.3 367 746.7 359 800 357.3C853.3 355.7 906.7 360.3 933.3 362.7L960 365L960 401L933.3 401C906.7 401 853.3 401 800 401C746.7 401 693.3 401 640 401C586.7 401 533.3 401 480 401C426.7 401 373.3 401 320 401C266.7 401 213.3 401 160 401C106.7 401 53.3 401 26.7 401L0 401Z"
    fill="#5189d4"></path>
  <path
    d="M0 386L26.7 383.2C53.3 380.3 106.7 374.7 160 371.2C213.3 367.7 266.7 366.3 320 367.7C373.3 369 426.7 373 480 373.5C533.3 374 586.7 371 640 372.2C693.3 373.3 746.7 378.7 800 376.5C853.3 374.3 906.7 364.7 933.3 359.8L960 355L960 401L933.3 401C906.7 401 853.3 401 800 401C746.7 401 693.3 401 640 401C586.7 401 533.3 401 480 401C426.7 401 373.3 401 320 401C266.7 401 213.3 401 160 401C106.7 401 53.3 401 26.7 401L0 401Z"
    fill="#6c91c2"></path>
</svg>