<svg id="visual" viewBox="0 0 900 600" width="900" height="600" xmlns="http://www.w3.org/2000/svg" xmlns:xlink="http://www.w3.org/1999/xlink" version="1.1"><rect x="0" y="0" width="900" height="600" fill="#002233"></rect><path d="M0 495L25 504.5C50 514 100 533 150 542.3C200 551.7 250 551.3 300 543.8C350 536.3 400 521.7 450 519.3C500 517 550 527 600 530.8C650 534.7 700 532.3 750 529.8C800 527.3 850 524.7 875 523.3L900 522L900 601L875 601C850 601 800 601 750 601C700 601 650 601 600 601C550 601 500 601 450 601C400 601 350 601 300 601C250 601 200 601 150 601C100 601 50 601 25 601L0 601Z" fill="#0066FF" stroke-linecap="round" stroke-linejoin="miter"></path></svg>