<svg id="visual" viewBox="0 0 960 400" width="960" height="400" xmlns="http://www.w3.org/2000/svg"
  xmlns:xlink="http://www.w3.org/1999/xlink" version="1.1">
  <path
    d="M0 322L26.7 315.2C53.3 308.3 106.7 294.7 160 285.5C213.3 276.3 266.7 271.7 320 271.2C373.3 270.7 426.7 274.3 480 273.2C533.3 272 586.7 266 640 270.5C693.3 275 746.7 290 800 299.5C853.3 309 906.7 313 933.3 315L960 317L960 401L933.3 401C906.7 401 853.3 401 800 401C746.7 401 693.3 401 640 401C586.7 401 533.3 401 480 401C426.7 401 373.3 401 320 401C266.7 401 213.3 401 160 401C106.7 401 53.3 401 26.7 401L0 401Z"
    fill="#0066ff"></path>
  <path
    d="M0 283L26.7 285.3C53.3 287.7 106.7 292.3 160 299.2C213.3 306 266.7 315 320 321.7C373.3 328.3 426.7 332.7 480 331.3C533.3 330 586.7 323 640 315.8C693.3 308.7 746.7 301.3 800 304.8C853.3 308.3 906.7 322.7 933.3 329.8L960 337L960 401L933.3 401C906.7 401 853.3 401 800 401C746.7 401 693.3 401 640 401C586.7 401 533.3 401 480 401C426.7 401 373.3 401 320 401C266.7 401 213.3 401 160 401C106.7 401 53.3 401 26.7 401L0 401Z"
    fill="#1274f3"></path>
  <path
    d="M0 348L26.7 342.2C53.3 336.3 106.7 324.7 160 321C213.3 317.3 266.7 321.7 320 325.8C373.3 330 426.7 334 480 330.8C533.3 327.7 586.7 317.3 640 312.5C693.3 307.7 746.7 308.3 800 313.8C853.3 319.3 906.7 329.7 933.3 334.8L960 340L960 401L933.3 401C906.7 401 853.3 401 800 401C746.7 401 693.3 401 640 401C586.7 401 533.3 401 480 401C426.7 401 373.3 401 320 401C266.7 401 213.3 401 160 401C106.7 401 53.3 401 26.7 401L0 401Z"
    fill="#347fe5"></path>
  <path
    d="M0 371L26.7 369.7C53.3 368.3 106.7 365.7 160 364.8C213.3 364 266.7 365 320 361C373.3 357 426.7 348 480 349.2C533.3 350.3 586.7 361.7 640 361.7C693.3 361.7 746.7 350.3 800 344C853.3 337.7 906.7 336.3 933.3 335.7L960 335L960 401L933.3 401C906.7 401 853.3 401 800 401C746.7 401 693.3 401 640 401C586.7 401 533.3 401 480 401C426.7 401 373.3 401 320 401C266.7 401 213.3 401 160 401C106.7 401 53.3 401 26.7 401L0 401Z"
    fill="#5189d4"></path>
  <path
    d="M0 383L26.7 380.8C53.3 378.7 106.7 374.3 160 372C213.3 369.7 266.7 369.3 320 369.2C373.3 369 426.7 369 480 369.7C533.3 370.3 586.7 371.7 640 373.2C693.3 374.7 746.7 376.3 800 376.2C853.3 376 906.7 374 933.3 373L960 372L960 401L933.3 401C906.7 401 853.3 401 800 401C746.7 401 693.3 401 640 401C586.7 401 533.3 401 480 401C426.7 401 373.3 401 320 401C266.7 401 213.3 401 160 401C106.7 401 53.3 401 26.7 401L0 401Z"
    fill="#6c91c2"></path>
</svg>