<svg id="visual" viewBox="0 0 960 400" width="960" height="400" xmlns="http://www.w3.org/2000/svg"
  xmlns:xlink="http://www.w3.org/1999/xlink" version="1.1">
  <path
    d="M0 278L26.7 283.2C53.3 288.3 106.7 298.7 160 306.7C213.3 314.7 266.7 320.3 320 315.3C373.3 310.3 426.7 294.7 480 288.7C533.3 282.7 586.7 286.3 640 294.7C693.3 303 746.7 316 800 317.7C853.3 319.3 906.7 309.7 933.3 304.8L960 300L960 401L933.3 401C906.7 401 853.3 401 800 401C746.7 401 693.3 401 640 401C586.7 401 533.3 401 480 401C426.7 401 373.3 401 320 401C266.7 401 213.3 401 160 401C106.7 401 53.3 401 26.7 401L0 401Z"
    fill="#0066ff"></path>
  <path
    d="M0 328L26.7 320.2C53.3 312.3 106.7 296.7 160 296.8C213.3 297 266.7 313 320 318C373.3 323 426.7 317 480 316C533.3 315 586.7 319 640 319.2C693.3 319.3 746.7 315.7 800 312.7C853.3 309.7 906.7 307.3 933.3 306.2L960 305L960 401L933.3 401C906.7 401 853.3 401 800 401C746.7 401 693.3 401 640 401C586.7 401 533.3 401 480 401C426.7 401 373.3 401 320 401C266.7 401 213.3 401 160 401C106.7 401 53.3 401 26.7 401L0 401Z"
    fill="#1274f3"></path>
  <path
    d="M0 311L26.7 311.5C53.3 312 106.7 313 160 317.8C213.3 322.7 266.7 331.3 320 332.7C373.3 334 426.7 328 480 330.3C533.3 332.7 586.7 343.3 640 343.7C693.3 344 746.7 334 800 333.5C853.3 333 906.7 342 933.3 346.5L960 351L960 401L933.3 401C906.7 401 853.3 401 800 401C746.7 401 693.3 401 640 401C586.7 401 533.3 401 480 401C426.7 401 373.3 401 320 401C266.7 401 213.3 401 160 401C106.7 401 53.3 401 26.7 401L0 401Z"
    fill="#347fe5"></path>
  <path
    d="M0 333L26.7 338.7C53.3 344.3 106.7 355.7 160 355C213.3 354.3 266.7 341.7 320 340.3C373.3 339 426.7 349 480 352C533.3 355 586.7 351 640 349.2C693.3 347.3 746.7 347.7 800 346.8C853.3 346 906.7 344 933.3 343L960 342L960 401L933.3 401C906.7 401 853.3 401 800 401C746.7 401 693.3 401 640 401C586.7 401 533.3 401 480 401C426.7 401 373.3 401 320 401C266.7 401 213.3 401 160 401C106.7 401 53.3 401 26.7 401L0 401Z"
    fill="#5189d4"></path>
  <path
    d="M0 356L26.7 361.8C53.3 367.7 106.7 379.3 160 381C213.3 382.7 266.7 374.3 320 373.7C373.3 373 426.7 380 480 383.3C533.3 386.7 586.7 386.3 640 384.3C693.3 382.3 746.7 378.7 800 374.3C853.3 370 906.7 365 933.3 362.5L960 360L960 401L933.3 401C906.7 401 853.3 401 800 401C746.7 401 693.3 401 640 401C586.7 401 533.3 401 480 401C426.7 401 373.3 401 320 401C266.7 401 213.3 401 160 401C106.7 401 53.3 401 26.7 401L0 401Z"
    fill="#6c91c2"></path>
</svg>